<svg width="295" height="144" viewBox="0 0 295 144" fill="none" xmlns="http://www.w3.org/2000/svg">
<rect x="7.44401" y="7.44401" width="251.235" height="104.216" rx="7.44401" stroke="#D9D9D9" stroke-width="14.888"/>
<rect x="14.5312" y="14.5322" width="270.84" height="123.999" fill="white"/>
<path fill-rule="evenodd" clip-rule="evenodd" d="M259.69 39.784L63.847 39.784C63.9913 40.6933 64.0662 41.6257 64.0662 42.5755C64.0662 52.3396 56.1508 60.255 46.3867 60.255C45.4368 60.255 44.5044 60.1801 43.595 60.0359V108.86C44.5043 108.716 45.4367 108.641 46.3866 108.641C56.1507 108.641 64.0661 116.557 64.0661 126.321C64.0661 127.271 63.9912 128.203 63.8469 129.112L259.69 129.112C259.546 128.203 259.471 127.271 259.471 126.321C259.471 116.557 267.386 108.641 277.151 108.641C278.101 108.641 279.033 108.716 279.942 108.86L279.942 60.0361C279.033 60.1804 278.101 60.2553 277.151 60.2553C267.386 60.2553 259.471 52.3399 259.471 42.5758C259.471 41.6258 259.546 40.6934 259.69 39.784ZM277.174 144H279.942C288.165 144 294.83 137.335 294.83 129.112V39.784C294.83 31.5616 288.165 24.896 279.942 24.896H46.3867H43.595C35.3726 24.896 28.707 31.5616 28.707 39.784V126.321V129.112C28.707 137.335 35.3726 144 43.5951 144H46.3631C46.3709 144 46.3787 144 46.3866 144C46.3944 144 46.4022 144 46.41 144H277.127C277.135 144 277.143 144 277.151 144C277.158 144 277.166 144 277.174 144Z" fill="#D9D9D9"/>
<circle cx="162.495" cy="85.2639" r="40.2312" fill="#D9D9D9"/>
<path d="M156.308 87.8365C156.308 87.8365 158.392 87.8365 162.56 87.8365C165.875 87.8365 168.257 87.3304 169.706 86.3181C170.678 85.683 171.433 84.7005 171.968 83.3707C172.504 82.0409 172.772 80.4828 172.772 78.6965C172.772 76.5132 172.405 74.6772 171.671 73.1886C170.936 71.7 169.914 70.6977 168.604 70.1817C167.036 69.5267 164.496 69.1992 160.983 69.1992H156.308V87.8365ZM151.783 95.7261C151.783 95.7261 151.783 94.4657 151.783 91.945C151.783 91.945 150.423 91.945 147.704 91.945C147.704 91.945 147.704 90.5755 147.704 87.8365C147.704 87.8365 149.064 87.8365 151.783 87.8365C151.783 87.8365 151.783 80.2645 151.783 65.1204C151.783 65.1204 155.336 65.1204 162.441 65.1204C164.883 65.1204 166.808 65.299 168.217 65.6563C169.646 66.0136 170.936 66.6189 172.088 67.4724C173.616 68.5442 174.866 70.0824 175.839 72.0871C176.831 74.0719 177.327 76.2948 177.327 78.756C177.327 83.46 176.047 86.9135 173.487 89.1167C172.316 90.1289 170.936 90.8534 169.348 91.29C167.761 91.7267 165.667 91.945 163.067 91.945H156.308V95.7261H168.426C168.426 95.7261 168.426 97.0857 168.426 99.8049C168.426 99.8049 164.386 99.8049 156.308 99.8049C156.308 99.8049 156.308 103.258 156.308 110.166C156.308 110.166 154.8 110.166 151.783 110.166C151.783 110.166 151.783 106.712 151.783 99.8049C151.783 99.8049 150.423 99.8049 147.704 99.8049C147.704 99.8049 147.704 98.4453 147.704 95.7261C147.704 95.7261 149.064 95.7261 151.783 95.7261Z" fill="white"/>
</svg>
