<svg width="310" height="151" viewBox="0 0 310 151" fill="none" xmlns="http://www.w3.org/2000/svg">
<path fill-rule="evenodd" clip-rule="evenodd" d="M263.448 36.848C262.494 36.9993 261.516 37.0779 260.52 37.0779C250.281 37.0779 241.981 28.7777 241.981 18.5389C241.981 17.5429 242.06 16.5652 242.211 15.6117L36.8481 15.6117C36.9993 16.5652 37.0779 17.5429 37.0779 18.5389C37.0779 28.7777 28.7777 37.0779 18.5389 37.0779C17.5429 37.0779 16.5652 36.9993 15.6117 36.8481V88.046C16.5652 87.8948 17.5429 87.8162 18.5389 87.8162C28.7777 87.8162 37.0779 96.1164 37.0779 106.355C37.0779 107.351 36.9994 108.329 36.8481 109.282L242.211 109.282C242.06 108.329 241.981 107.351 241.981 106.355C241.981 96.1164 250.281 87.8162 260.52 87.8162C261.516 87.8162 262.494 87.8948 263.448 88.0461V36.848ZM260.444 124.894C260.469 124.894 260.495 124.894 260.52 124.894C260.545 124.894 260.571 124.894 260.596 124.894H263.448C272.07 124.894 279.06 117.904 279.06 109.282V15.6117C279.06 6.98962 272.07 0 263.448 0H260.52H18.5389H15.6117C6.98962 0 0 6.98961 0 15.6117V18.5389V106.355V109.282C0 117.904 6.98964 124.894 15.6118 124.894H18.4629C18.4883 124.894 18.5136 124.894 18.5389 124.894C18.5643 124.894 18.5896 124.894 18.615 124.894H260.444Z" fill="#EE2020"/>
<rect x="15.2383" y="15.2383" width="284.005" height="130.027" fill="white"/>
<path fill-rule="evenodd" clip-rule="evenodd" d="M293.552 62.9541C292.598 63.1053 291.621 63.1838 290.625 63.1838C280.386 63.1838 272.086 54.8836 272.086 44.6448C272.086 43.6487 272.165 42.6708 272.316 41.7172L66.9516 41.7172C67.1029 42.6707 67.1814 43.6484 67.1814 44.6444C67.1814 54.8832 58.8812 63.1834 48.6425 63.1834C47.6464 63.1834 46.6687 63.1048 45.7153 62.9536V114.152C46.6688 114 47.6466 113.922 48.6427 113.922C58.8815 113.922 67.1816 122.222 67.1816 132.461C67.1816 133.457 67.1031 134.434 66.9519 135.388L272.316 135.388C272.165 134.434 272.086 133.457 272.086 132.461C272.086 122.222 280.386 113.922 290.625 113.922C291.621 113.922 292.598 114 293.552 114.151V62.9541ZM309.163 132.624C309.164 132.569 309.164 132.515 309.164 132.461C309.164 132.406 309.164 132.352 309.163 132.298V44.8079C309.164 44.7536 309.164 44.6992 309.164 44.6448C309.164 44.5904 309.164 44.5361 309.163 44.4818V41.7172C309.163 33.0951 302.174 26.1055 293.552 26.1055H48.6425H45.7153C37.0931 26.1055 30.1035 33.0951 30.1035 41.7172V44.6444V135.388C30.1035 144.01 37.0932 150.999 45.7153 150.999H48.5465C48.5786 151 48.6106 151 48.6427 151C48.6748 151 48.7068 151 48.7388 150.999H290.529C290.561 151 290.593 151 290.625 151C290.657 151 290.689 151 290.721 150.999H293.552C302.174 150.999 309.163 144.01 309.163 135.388V132.624Z" fill="url(#paint0_linear_284_7)"/>
<circle cx="170.394" cy="89.4085" r="42.1869" fill="url(#paint1_linear_284_7)"/>
<path d="M164.08 91.3834C164.08 91.3834 166.266 91.3834 170.636 91.3834C174.112 91.3834 176.61 90.8526 178.129 89.7912C179.149 89.1252 179.94 88.0949 180.502 86.7005C181.064 85.306 181.345 83.6722 181.345 81.799C181.345 79.5096 180.96 77.5844 180.19 76.0235C179.42 74.4625 178.348 73.4114 176.974 72.8703C175.33 72.1835 172.666 71.8401 168.982 71.8401H164.08V91.3834ZM159.335 99.6565C159.335 99.6565 159.335 98.3349 159.335 95.6916C159.335 95.6916 157.909 95.6916 155.058 95.6916C155.058 95.6916 155.058 94.2555 155.058 91.3834C155.058 91.3834 156.484 91.3834 159.335 91.3834C159.335 91.3834 159.335 83.4433 159.335 67.563C159.335 67.563 163.061 67.563 170.512 67.563C173.072 67.563 175.09 67.7503 176.568 68.125C178.067 68.4996 179.42 69.1344 180.627 70.0294C182.229 71.1532 183.54 72.7662 184.56 74.8683C185.601 76.9496 186.121 79.2807 186.121 81.8615C186.121 86.7941 184.779 90.4156 182.094 92.7258C180.866 93.7873 179.42 94.5469 177.754 95.0048C176.089 95.4627 173.894 95.6916 171.167 95.6916H164.08V99.6565H176.787C176.787 99.6565 176.787 101.082 176.787 103.934C176.787 103.934 172.551 103.934 164.08 103.934C164.08 103.934 164.08 107.555 164.08 114.798C164.08 114.798 162.499 114.798 159.335 114.798C159.335 114.798 159.335 111.176 159.335 103.934C159.335 103.934 157.909 103.934 155.058 103.934C155.058 103.934 155.058 102.508 155.058 99.6565C155.058 99.6565 156.484 99.6565 159.335 99.6565Z" fill="white"/>
<defs>
<linearGradient id="paint0_linear_284_7" x1="169.634" y1="26.1055" x2="170" y2="202.505" gradientUnits="userSpaceOnUse">
<stop stop-color="#FC1F1F"/>
<stop offset="1" stop-color="#991F1F"/>
</linearGradient>
<linearGradient id="paint1_linear_284_7" x1="170.394" y1="47.2217" x2="170.394" y2="174.005" gradientUnits="userSpaceOnUse">
<stop stop-color="#FC1F1F"/>
<stop offset="1" stop-color="#991F1F"/>
</linearGradient>
</defs>
</svg>
